<svg version="1.2" xmlns="http://www.w3.org/2000/svg" viewBox="0 0 984 130" width="984" height="130">
	<title>Логотип</title>
	<style>
		.s0 { fill: #ffffff } 
		.s1 { fill: #ff9500 } 
	</style>
	<g>
		<g id="_Слой_1">
			<g>
				<path class="s0" d="m141.8 97.5q-5.1-4-6-12.6c0-1.3 0.2-2.3 0.9-3 0.7-0.7 1.7-1.1 3-1.1 2.4 0 3.8 1.3 4.1 4 0.4 3.3 1.6 5.6 3.5 6.9 1.9 1.3 5 1.9 9.2 1.9h15.9c3.4 0 6-0.4 7.9-1.2 1.8-0.8 3.2-2.1 3.9-3.9 0.8-1.8 1.2-4.4 1.2-7.7 0-3.3-0.4-6-1.2-7.9-0.8-1.8-2.1-3.2-4-4-1.8-0.8-4.4-1.2-7.7-1.2h-14.3c-6.7 0-11.7-1.6-15-4.9-3.3-3.3-4.9-8.3-4.9-15 0-6.7 1.6-11.8 4.9-15 3.2-3.2 8.2-4.8 14.9-4.8h14.1c6 0 10.7 1.3 13.9 3.8 3.2 2.5 5.1 6.5 5.7 11.8 0.1 1.3-0.1 2.3-0.8 3-0.7 0.7-1.7 1.1-3 1.1-1.3 0-2.2-0.3-2.8-0.9-0.6-0.6-1.1-1.6-1.3-2.9-0.4-2.9-1.4-4.9-3.2-6.1q-2.7-1.8-8.4-1.8h-14.1c-4.5 0-7.6 0.8-9.3 2.5-1.7 1.7-2.5 4.8-2.5 9.4 0 4.6 0.9 7.6 2.6 9.4 1.7 1.7 4.9 2.6 9.4 2.6h14.3c7.2 0 12.4 1.7 15.8 5.1q5.1 5.1 5.1 15.9c0 7.2-1.7 12.4-5.1 15.8-3.4 3.4-8.7 5-15.8 5h-15.9c-6.4 0-11.3-1.4-14.7-4.1z"/>
				<path class="s0" d="m258.3 52q5.1 5.1 5.1 15.9v29.7c0 1.3-0.4 2.2-1.1 2.9-0.7 0.7-1.7 1.1-2.9 1.1-1.2 0-2.2-0.3-2.9-1.1-0.7-0.7-1.1-1.7-1.1-2.9v-29.7c0-3.4-0.4-6-1.2-7.9-0.8-1.8-2.1-3.2-4-4-1.8-0.8-4.5-1.2-7.9-1.2h-3.1c-5.2 0-9.3 0.7-12.1 2.2-2.8 1.5-4.6 3.7-5.4 6.8-0.1 0.6-0.3 1-0.4 1.2v32.5c0 1.3-0.4 2.2-1.1 2.9-0.7 0.7-1.7 1.1-2.9 1.1-1.2 0-2.2-0.3-2.9-1.1-0.7-0.7-1.1-1.7-1.1-2.9v-69.5c0-1.3 0.3-2.2 1.1-2.9 0.8-0.7 1.7-1.1 2.9-1.1 1.2 0 2.2 0.4 2.9 1.1 0.7 0.7 1.1 1.7 1.1 2.9v23.2c4.4-3 10.4-4.4 17.9-4.4h3.1q10.8 0 15.9 5.1z"/>
				<path class="s0" d="m324.7 52q5.1 5.1 5.1 15.9v29.7c0 1.3-0.4 2.2-1.1 2.9-0.7 0.7-1.7 1.1-2.9 1.1-1.2 0-2.2-0.3-2.9-1.1-0.7-0.7-1.1-1.7-1.1-2.9v-3.5c-3.9 5-9.9 7.5-17.9 7.5h-6.2c-6.1 0-10.5-1.4-13.4-4.3-2.9-2.9-4.3-7.3-4.3-13.4 0-6.1 1.4-10.5 4.3-13.4 2.9-2.9 7.3-4.3 13.4-4.3h24.1c-0.2-4.3-1.3-7.2-3.2-8.9q-2.8-2.4-9.9-2.4h-6.4c-4.1 0-7.2 0.4-9.1 1.1q-2.8 1.1-3.9 3.6c-0.5 1.3-1.1 2.3-1.7 2.8-0.6 0.5-1.5 0.8-2.7 0.8-1.2 0-2.1-0.3-2.9-0.9-0.7-0.6-1.1-1.4-1.1-2.3 0-0.9 0-0.7 0.1-0.9 0.9-4.1 3-7.2 6.5-9.1 3.4-2 8.3-2.9 14.7-2.9h6.4q10.8 0 15.9 5.1zm-2.9 31.3v-9.2h-24.1c-3.8 0-6.4 0.7-7.7 2-1.3 1.3-2 3.9-2 7.7 0 3.8 0.7 6.4 2 7.7 1.3 1.3 3.9 2 7.7 2h6.2c10.1 0 15.9-3 17.5-9 0.1-0.6 0.3-1 0.4-1.3z"/>
				<path class="s0" d="m398.7 25.2c0.7 0.7 1.1 1.7 1.1 2.9v69.5c0 1.3-0.4 2.2-1.1 2.9-0.7 0.7-1.7 1.1-2.9 1.1-1.2 0-2.2-0.3-2.9-1.1-0.7-0.7-1.1-1.7-1.1-2.9v-2.1c-3.5 4.1-9.4 6.1-17.9 6.1h-4.2q-10.8 0-15.9-5.1-5.1-5.1-5.1-15.9v-12.6q0-10.8 5.1-15.9 5.1-5.1 15.9-5.1h22.1v-18.8c0-1.3 0.3-2.2 1.1-2.9 0.7-0.7 1.7-1.1 2.9-1.1 1.2 0 2.2 0.4 2.9 1.1zm-11.8 66.2c3.2-1.5 4.9-3.7 4.9-6.7v-29.8h-22.1c-3.4 0-6 0.4-7.9 1.2-1.8 0.8-3.2 2.1-4 4-0.8 1.8-1.2 4.5-1.2 7.9v12.6c0 3.4 0.4 6 1.2 7.9 0.8 1.8 2.1 3.2 4 4 1.8 0.8 4.5 1.2 7.9 1.2h4.2c5.5 0 9.8-0.8 13.1-2.3z"/>
				<path class="s0" d="m468.6 25.2c0.7 0.7 1.1 1.7 1.1 2.9v69.5c0 1.3-0.4 2.2-1.1 2.9-0.7 0.7-1.7 1.1-2.9 1.1-1.2 0-2.2-0.3-2.9-1.1-0.7-0.8-1.1-1.7-1.1-2.9v-2.1c-3.5 4.1-9.4 6.1-17.9 6.1h-4.2q-10.8 0-15.9-5.1-5.1-5.1-5.1-15.9v-12.6q0-10.8 5.1-15.9 5.1-5.1 15.9-5.1h22.1v-18.8c0-1.3 0.3-2.2 1.1-2.9 0.7-0.7 1.7-1.1 2.9-1.1 1.2 0 2.2 0.4 2.9 1.1zm-11.8 66.2c3.2-1.5 4.9-3.7 4.9-6.7v-29.8h-22.1c-3.4 0-6 0.4-7.9 1.2-1.8 0.8-3.2 2.1-4 4-0.8 1.8-1.2 4.5-1.2 7.9v12.6c0 3.4 0.4 6 1.2 7.9 0.8 1.8 2.1 3.2 4 4 1.8 0.8 4.5 1.2 7.9 1.2h4.2c5.5 0 9.8-0.8 13.1-2.3z"/>
				<path class="s0" d="m496.4 77.5v3.2c0 3.3 0.4 5.9 1.2 7.7 0.8 1.8 2.1 3.2 4 4 1.8 0.8 4.5 1.2 7.9 1.2h9.1c4.1 0 7.2-0.4 9.1-1.3 1.9-0.9 3.1-2.4 3.7-4.6 0.3-1.3 0.8-2.2 1.4-2.8 0.6-0.6 1.6-0.9 2.8-0.9 1.2 0 2.3 0.4 3 1.1 0.7 0.7 0.9 1.7 0.7 3-0.7 4.6-2.8 8.1-6.2 10.3-3.4 2.2-8.2 3.3-14.5 3.3h-9.1q-10.8 0-15.9-5.1c-3.4-3.4-5.1-8.7-5.1-15.8v-12.7c0-7.2 1.7-12.6 5.1-16 3.4-3.4 8.7-5.1 15.9-5h9.1q10.8 0 15.9 5.1 5.1 5.1 5.1 15.9v5.5c0 1.3-0.4 2.2-1.1 2.9-0.7 0.7-1.7 1.1-2.9 1.1h-39.2zm0-8h35.2v-1.5c0-3.4-0.4-6-1.2-7.9-0.8-1.8-2.1-3.2-4-4-1.8-0.8-4.5-1.2-7.9-1.2h-9.1c-3.4 0-6 0.3-7.9 1.1-1.8 0.8-3.2 2.2-4 4-0.8 1.9-1.2 4.5-1.2 7.9v1.5z"/>
				<path class="s0" d="m590.9 48c0.7 0.7 1.1 1.7 1.1 2.9 0 1.2-0.4 2.2-1.1 2.9-0.7 0.7-1.7 1.1-2.9 1.1-6.6 0-11.7 1.4-15.2 4.1-3.5 2.7-5.3 6.5-5.3 11.3v27.3c0 1.3-0.4 2.2-1.1 2.9-0.7 0.7-1.7 1.1-2.9 1.1-1.2 0-2.2-0.3-2.9-1.1-0.7-0.7-1.1-1.7-1.1-2.9v-46.7c0-1.3 0.3-2.2 1.1-2.9 0.7-0.7 1.7-1.1 2.9-1.1 1.2 0 2.2 0.4 2.9 1.1 0.7 0.7 1.1 1.7 1.1 2.9v5.9c2.1-3.2 4.9-5.7 8.4-7.4 3.5-1.7 7.5-2.5 12.1-2.5 4.6 0 2.2 0.4 2.9 1.1z"/>
				<path class="s0" d="m604.1 98.7c-2.6-2-4.2-4.9-4.9-8.8-0.2-1.3 0-2.4 0.8-3.1 0.8-0.7 1.8-1.1 3.1-1.1 1.3 0 2.2 0.3 2.8 0.9 0.6 0.6 1.1 1.6 1.4 2.9 0.4 1.5 1.1 2.6 2.3 3.2q1.6 0.9 5.4 0.9h18.2c3.1 0 5.2-0.5 6.3-1.6 1.1-1.1 1.7-3.2 1.7-6.4 0-3.2-0.6-5.3-1.7-6.4-1.1-1.1-3.2-1.6-6.3-1.6h-17.8c-10.3 0-15.4-5.1-15.4-15.4 0-10.3 1.3-9.1 3.8-11.6 2.5-2.5 6.4-3.8 11.6-3.8h17.3c8.6 0 13.5 3.7 14.8 11 0.2 1.3 0 2.4-0.8 3.1-0.7 0.7-1.8 1.1-3.1 1.1-1.3 0-2.1-0.3-2.7-0.9-0.6-0.6-1.1-1.5-1.5-2.9q-0.6-2-2.1-2.7c-1-0.5-2.6-0.7-4.6-0.7h-17.3c-3 0-4.9 0.5-5.9 1.4q-1.5 1.5-1.5 6c0 3 0.5 4.8 1.5 5.9 1 1 3 1.5 5.9 1.5h17.8q8.1 0 12 3.9 3.9 3.9 3.9 12 0 8.1-3.9 12-3.9 3.9-12 3.9h-18.2c-4.6 0-8.3-1-10.8-2.9z"/>
				<path class="s0" d="m724.4 97.8c0 1.6-0.8 2.7-2.5 3.3-0.7 0.3-1.3 0.4-2 0.4-1.5 0-2.5-0.8-3.2-2.5l-6.5-15.6h-35.1l-6.3 15.6c-0.7 1.7-1.8 2.5-3.3 2.5-1.5 0-1.3-0.1-1.9-0.4q-2.7-1-2.7-3.3c0-1.5 0.1-1.3 0.4-1.9l26.7-64.9c0.9-2.1 2.4-3.1 4.5-3.1h0.2c2 0 3.4 1 4.3 3.1l26.9 64.9c0.3 0.6 0.4 1.2 0.4 1.9zm-46.1-22.3h28.6l-14.5-34.9z"/>
				<path class="s0" d="m785 48c0.7 0.7 1.1 1.7 1.1 2.9v57.6c0 5.2-1.2 9.1-3.7 11.6-2.5 2.5-6.3 3.7-11.6 3.7h-20.6c-4.4 0-7.9-0.9-10.3-2.7-2.5-1.8-4-4.6-4.6-8.4-0.2-1.3 0-2.4 0.7-3.1 0.7-0.7 1.8-1.1 3.2-1.1 1.4 0 2 0.3 2.6 0.9q0.9 0.9 1.5 3 0.6 1.9 2.1 2.7c1 0.5 2.7 0.7 4.9 0.7h20.6c3 0 4.9-0.5 5.9-1.4 1-1 1.4-2.9 1.4-5.9v-13.9c-3.8 4.7-9.8 7.1-17.9 7.1h-4.2q-10.8 0-15.9-5.1c-3.4-3.4-5.1-8.7-5.1-15.8v-12.7c0-7.2 1.7-12.6 5.1-16 3.4-3.4 8.7-5.1 15.9-5h9.1c5.8 0 10.2 1.7 13.1 5.1v-1.1c0-1.3 0.3-2.2 1.1-2.9 0.7-0.7 1.7-1.1 2.9-1.1 1.2 0 2.2 0.4 2.9 1.1zm-11.7 43.4c3.2-1.5 4.9-3.7 4.9-6.7v-20.7c0-3.3-1.1-5.7-3.2-7-2.1-1.4-5.4-2-9.9-2h-9.1c-3.4 0-6 0.3-7.9 1.1-1.8 0.8-3.2 2.2-4 4-0.8 1.9-1.2 4.5-1.2 7.9v12.7c0 3.3 0.4 5.9 1.2 7.7 0.8 1.8 2.1 3.2 4 4 1.8 0.8 4.5 1.2 7.9 1.2h4.2c5.5 0 9.8-0.8 13.1-2.3z"/>
				<path class="s0" d="m812.9 77.5v3.2c0 3.3 0.4 5.9 1.2 7.7 0.8 1.8 2.1 3.2 4 4 1.8 0.8 4.5 1.2 7.9 1.2h9.1c4.1 0 7.2-0.4 9.1-1.3 1.9-0.9 3.1-2.4 3.7-4.6 0.3-1.3 0.8-2.2 1.4-2.8 0.6-0.6 1.6-0.9 2.8-0.9 1.2 0 2.3 0.4 3 1.1 0.7 0.7 0.9 1.7 0.7 3-0.7 4.6-2.8 8.1-6.2 10.3-3.4 2.2-8.2 3.3-14.5 3.3h-9.1q-10.8 0-15.9-5.1c-3.4-3.4-5.1-8.7-5.1-15.8v-12.7c0-7.2 1.7-12.6 5.1-16 3.4-3.4 8.7-5.1 15.9-5h9.1q10.8 0 15.9 5.1 5.1 5.1 5.1 15.9v5.5c0 1.3-0.4 2.2-1.1 2.9-0.7 0.7-1.7 1.1-2.9 1.1h-39.2zm0-8h35.2v-1.5c0-3.4-0.4-6-1.2-7.9-0.8-1.8-2.1-3.2-4-4-1.8-0.8-4.5-1.2-7.9-1.2h-9.1c-3.4 0-6 0.3-7.9 1.1-1.8 0.8-3.2 2.2-4 4-0.8 1.9-1.2 4.5-1.2 7.9v1.5z"/>
				<path class="s0" d="m920.9 52q5.1 5.1 5.1 15.9v29.7c0 1.3-0.4 2.2-1.1 2.9-0.7 0.7-1.7 1.1-2.9 1.1-1.2 0-2.2-0.3-2.9-1.1-0.7-0.7-1.1-1.7-1.1-2.9v-29.7c0-3.4-0.4-6-1.2-7.9-0.8-1.8-2.1-3.2-4-4-1.8-0.8-4.5-1.2-7.9-1.2h-3.1c-5.5 0-9.8 0.8-13.1 2.3-3.2 1.5-4.9 3.7-4.9 6.7v33.8c0 1.3-0.4 2.2-1.1 2.9-0.7 0.7-1.7 1.1-2.9 1.1-1.2 0-2.2-0.3-2.9-1.1-0.7-0.7-1.1-1.7-1.1-2.9v-46.7c0-1.3 0.3-2.2 1.1-2.9 0.7-0.7 1.7-1.1 2.9-1.1 1.2 0 2.2 0.4 2.9 1.1 0.7 0.7 1.1 1.7 1.1 2.9v3.1c3.8-4.7 9.8-7.1 17.9-7.1h3.1q10.8 0 15.9 5.1z"/>
				<path class="s0" d="m973.8 97.6c0 1.3-0.4 2.2-1.1 2.9-0.7 0.7-1.7 1.1-2.9 1.1-7.1 0-12.3-1.7-15.7-5-3.4-3.3-5-8.5-5-15.6v-26.1h-5.9c-1.3 0-2.2-0.3-2.9-1.1-0.7-0.7-1.1-1.7-1.1-2.9 0-1.2 0.3-2.2 1.1-2.9 0.7-0.7 1.7-1.1 2.9-1.1h5.9v-9.5c0-2.7 1.3-4 4-4 2.7 0 4 1.3 4 4v9.5h13.2c1.3 0 2.2 0.4 2.9 1.1 0.7 0.7 1.1 1.7 1.1 2.9 0 1.2-0.4 2.2-1.1 2.9-0.7 0.7-1.7 1.1-2.9 1.1h-13.2v26.1c0 3.3 0.4 5.9 1.2 7.7 0.8 1.8 2.1 3.1 3.9 3.8 1.8 0.7 4.4 1.1 7.7 1.1 3.3 0 4 1.3 4 4z"/>
			</g>
			<g>
				<path class="s1" d="m47.5 41.4v-16.7c-22.7 0.5-41 19-41 41.8 0 22.8 18.3 41.3 41 41.8v-15.7c-13.9-0.3-25.1-11.6-25.1-25.6 0-14 11.2-25.3 25.1-25.6z"/>
				<path class="s1" d="m47.5 41.4v51.2c13.9-0.3 25.1-11.6 25.1-25.6 0-14-11.2-25.3-25.1-25.6z"/>
				<path class="s1" d="m47.5 8v16.7q0.2 0 0.3 0c0 0 0 0 0.1 0 0 0 0 0 0.1 0 22.6 0.6 40.7 19.1 40.7 41.8 0 22.7-18.1 41.2-40.7 41.8 0 0 0 0-0.1 0 0 0 0 0-0.1 0q-0.1 0-0.3 0v16.7c32.3 0 58.5-26.2 58.5-58.5 0-32.3-26.2-58.5-58.5-58.5z"/>
			</g>
		</g>
	</g>
</svg>