<svg version="1.2" xmlns="http://www.w3.org/2000/svg" viewBox="0 0 267 298" width="267" height="298">
	<title>Щит и плюс</title>
	<style>
		.s0 { fill: #ff9500 } 
	</style>
	<g>
		<g id="_Слой_1">
			<path class="s0" d="m189 150c-38.1 0-69 30.9-69 69 0 38.1 30.9 69 69 69 38.1 0 69-30.9 69-69 0-38.1-30.9-69-69-69zm41 76h-34v33h-14v-33h-34v-14h34v-35h14v35h34z"/>
			<path class="s0" d="m203 122c0 0 9 1 14 3 5 2 13 6.9 13 6.9v-78.9l-111-42-110 41v95.9c0 10.7 1.3 21.4 4 31.8 4 15.3 11.4 36.4 25 52.3 24 28 48 41 54 44 6 3 28 12 28 12 0 0-11-10-17-22-6-12-7-20-7-20 0 0-24-11-40-39-16-28-12-23.6-15-31.8-3-8.2-5-18.4-5-27.9v-76.3l83.5-31 83.5 32z"/>
		</g>
	</g>
</svg>