<svg version="1.2" xmlns="http://www.w3.org/2000/svg" viewBox="0 0 207 195" width="207" height="195">
	<title>Шарик с сингналом</title>
	<style>
		.s0 { fill: #ff9500 } 
		.s1 { fill: #ffffff } 
	</style>
	<g>
		<g id="_Слой_1">
			<path fill-rule="evenodd" class="s0" d="m103.5 191c-52.8 0-95.5-40.7-95.5-91 0-50.3 42.7-91 95.5-91 52.8 0 95.5 40.7 95.5 91 0 50.3-42.7 91-95.5 91z"/>
			<path fill-rule="evenodd" class="s1" d="m102.5 113c-6.9 0-12.5-4.7-12.5-10.5 0-5.8 5.6-10.5 12.5-10.5 6.9 0 12.5 4.7 12.5 10.5 0 5.8-5.6 10.5-12.5 10.5z"/>
			<path class="s1" d="m86 118c0 0-7.1-5-7.5-15.5-0.4-10.5 10.5-21.5 23.5-21.5 13 0 21 10 23 16 2 6 0 12-2 15-2 3-5.2 6-5.2 6l8.2 8c0 0 11-7 12-21 1-14-9-26-21-31-12-5-26.5-4.7-38 4-11.5 8.7-13 22-12 31 1 9 10.9 17 10.9 17z"/>
			<path class="s1" d="m69 133c0 0-14.8-12-14.4-30.5 0.4-18.5 14.4-32.5 25.4-37.5 11-5 27-6 39-2 12 4 22 13 27 23 5 10 4 20 2 29-2 9-13.3 18-13.3 18l8.3 8c0 0 13-9 17-24 4-15 1-33-9-45-10-12-29-23.4-48.5-22.7-19.5 0.7-37.5 8.7-49.5 23.7-12 15-11.3 32.1-8.9 41 4.9 18 16.7 27 16.7 27z"/>
		</g>
	</g>
</svg>